<?xml version="1.0" encoding="UTF-8"?>
<svg version="1.1" xmlns="http://www.w3.org/2000/svg" width="171" height="36">
<path d="M0 0 C50.82 0 101.64 0 154 0 C154 11.88 154 23.76 154 36 C103.18 36 52.36 36 0 36 C0 24.12 0 12.24 0 0 Z " fill="#090616" transform="translate(8,0)"/>
<path d="M0 0 C3.07469523 1.70251719 5.40613254 3.81226508 7 7 C7.63265287 12.10641248 7.90754125 15.789945 4.75 20 C0.30122091 23.2354757 -2.35697411 24.67716311 -8 24 C-11.6578218 21.96006092 -13.66946174 20.49580738 -16 17 C-16.66624845 12.92536476 -16.94496094 8.75643297 -14.94921875 5.046875 C-10.62664312 -0.20652075 -6.53257534 -1.00838411 0 0 Z " fill="#D6DBD3" transform="translate(32,6)"/>
<path d="M0 0 C2.35694954 0.09031574 4.71153582 0.24688128 7.0625 0.4375 C8.35285156 0.53933594 9.64320313 0.64117187 10.97265625 0.74609375 C12.47119141 0.87177734 12.47119141 0.87177734 14 1 C14 1.99 14 2.98 14 4 C12.02 4 10.04 4 8 4 C8 4.99 8 5.98 8 7 C9.65 7 11.3 7 13 7 C13 8.32 13 9.64 13 11 C11.35 11 9.7 11 8 11 C8 12.65 8 14.3 8 16 C5.03 16 2.06 16 -1 16 C-1 12.04 -1 8.08 -1 4 C-2.32 4 -3.64 4 -5 4 C-5 7.96 -5 11.92 -5 16 C-6.32 16 -7.64 16 -9 16 C-9 12.04 -9 8.08 -9 4 C-9.99 4 -10.98 4 -12 4 C-12 3.01 -12 2.02 -12 1 C-11.21753906 1.01160156 -10.43507813 1.02320313 -9.62890625 1.03515625 C-8.61699219 1.04417969 -7.60507813 1.05320312 -6.5625 1.0625 C-5.04849609 1.07990234 -5.04849609 1.07990234 -3.50390625 1.09765625 C-1.05978933 1.28612676 -1.05978933 1.28612676 0 0 Z " fill="#223758" transform="translate(128,11)"/>
<path d="M0 0 C1.875 0.125 1.875 0.125 4 1 C5.53855569 4.56297106 6.32709239 8.1868569 7 12 C8.32 12.33 9.64 12.66 11 13 C10.875 15.3125 10.875 15.3125 10 18 C6.01327027 20.6887247 2.76905406 21.69548705 -2 21 C-5.375 19.25 -5.375 19.25 -8 17 C-8 15.68 -8 14.36 -8 13 C-6.68 12.67 -5.36 12.34 -4 12 C-3.896875 11.319375 -3.79375 10.63875 -3.6875 9.9375 C-2.85274981 6.37084011 -1.50527246 3.33777806 0 0 Z " fill="#BECAC9" transform="translate(26,9)"/>
<path d="M0 0 C4.73479056 2.46209109 8.07982676 5.53385269 11 10 C11.87612318 14.13265649 11.25059844 17.31415165 9.8125 21.25 C7.46100791 24.8177811 4.81557843 27.09221079 1 29 C-3.61891196 29.56350726 -7.09841312 29.4422879 -11.3125 27.375 C-15.60485318 23.58175766 -17.76712208 20.83391359 -18.5 15.0625 C-18.23950548 10.66770537 -16.87228163 7.33691542 -14 4 C-9.68944683 0.38297643 -5.64810993 -0.82154326 0 0 Z M-14 8 C-15.85832776 11.71665552 -15.57993204 15.9532215 -15 20 C-12.56543724 23.15835169 -10.30027757 24.79981495 -7 27 C-2.1012158 27.35777637 1.21191502 26.65673748 5 23.5 C5.99 22.2625 5.99 22.2625 7 21 C7.33 20.67 7.66 20.34 8 20 C8.54740745 15.154098 8.74611856 11.23495486 6.1875 7 C2.11908256 3.28030406 -0.37161757 2.50972723 -5.70703125 2.60546875 C-9.58307419 3.27238585 -11.32149114 5.1875657 -14 8 Z " fill="#4C5768" transform="translate(31,3)"/>
<path d="M0 0 C3.66666667 0 7.33333333 0 11 0 C11 4.95 11 9.9 11 15 C9.68 15 8.36 15 7 15 C6.34 13.35 5.68 11.7 5 10 C4.67 11.65 4.34 13.3 4 15 C2.68 15 1.36 15 0 15 C0 10.05 0 5.1 0 0 Z " fill="#9FAEB8" transform="translate(68,12)"/>
<path d="M0 0 C1.65 0.33 3.3 0.66 5 1 C5 1.99 5 2.98 5 4 C5.66 4 6.32 4 7 4 C7 2.68 7 1.36 7 0 C7.99 0 8.98 0 10 0 C10 4.95 10 9.9 10 15 C8.68 15 7.36 15 6 15 C5.34 13.68 4.68 12.36 4 11 C3.67 12.32 3.34 13.64 3 15 C1.68 15 0.36 15 -1 15 C-1.02693575 12.87506859 -1.04636628 10.75004088 -1.0625 8.625 C-1.07410156 7.44164062 -1.08570312 6.25828125 -1.09765625 5.0390625 C-1 2 -1 2 0 0 Z " fill="#A7B7C0" transform="translate(81,12)"/>
<path d="M0 0 C3.3 0 6.6 0 10 0 C10 0.99 10 1.98 10 3 C7.69 3 5.38 3 3 3 C3 3.66 3 4.32 3 5 C4.65 5 6.3 5 8 5 C8 6.32 8 7.64 8 9 C6.35 9 4.7 9 3 9 C3 9.66 3 10.32 3 11 C4.98 11 6.96 11 9 11 C9 12.32 9 13.64 9 15 C5.7 15 2.4 15 -1 15 C-0.67 10.05 -0.34 5.1 0 0 Z " fill="#4E5965" transform="translate(93,12)"/>
<path d="M0 0 C2.8125 0.375 2.8125 0.375 3.8125 1.375 C3.85313832 3.04117115 3.855221 4.70888095 3.8125 6.375 C2.8225 6.375 1.8325 6.375 0.8125 6.375 C0.8125 5.385 0.8125 4.395 0.8125 3.375 C-0.1775 3.87 -0.1775 3.87 -1.1875 4.375 C-1.59479228 6.69656597 -1.93188677 9.0318787 -2.1875 11.375 C-1.1975 11.375 -0.2075 11.375 0.8125 11.375 C0.8125 10.715 0.8125 10.055 0.8125 9.375 C1.8025 9.705 2.7925 10.035 3.8125 10.375 C3.1875 12.3125 3.1875 12.3125 1.8125 14.375 C-1.3125 15.125 -1.3125 15.125 -4.1875 15.375 C-6.35095727 13.03125462 -7.14964706 11.62915543 -7.625 8.4375 C-6.90971852 3.43052961 -5.18263444 0.6097217 0 0 Z " fill="#CDD2C9" transform="translate(51.1875,11.625)"/>
<path d="M0 0 C1 1 1 1 1.0625 3.5625 C1.041875 4.366875 1.02125 5.17125 1 6 C0.01 6 -0.98 6 -2 6 C-2 5.01 -2 4.02 -2 3 C-2.99 3.495 -2.99 3.495 -4 4 C-4.40729228 6.32156597 -4.74438677 8.6568787 -5 11 C-4.01 11 -3.02 11 -2 11 C-2 10.34 -2 9.68 -2 9 C-1.01 9 -0.02 9 1 9 C0.42655063 11.86724686 0.1385485 12.8614515 -2 15 C-4.5 15.25 -4.5 15.25 -7 15 C-9.51012963 12.48987037 -9.29721609 11.53194763 -9.3125 8.0625 C-9.32925781 7.18722656 -9.34601563 6.31195312 -9.36328125 5.41015625 C-9 3 -9 3 -7.67578125 1.19921875 C-5.14818584 -0.60957331 -3.01424736 -0.26210847 0 0 Z " fill="#4C5662" transform="translate(113,12)"/>
<path d="M0 0 C2.375 0.75 2.375 0.75 3.375 1.75 C3.5625 4.6875 3.5625 4.6875 3.375 7.75 C2.715 8.41 2.055 9.07 1.375 9.75 C1.045 8.1 0.715 6.45 0.375 4.75 C-0.285 4.75 -0.945 4.75 -1.625 4.75 C-1.955 7.06 -2.285 9.37 -2.625 11.75 C-1.305 11.42 0.015 11.09 1.375 10.75 C1.705 12.07 2.035 13.39 2.375 14.75 C-0.5 15.375 -0.5 15.375 -3.625 15.75 C-6.22686108 13.14813892 -5.92310177 11.92645645 -5.9375 8.3125 C-5.95425781 7.34441406 -5.97101562 6.37632813 -5.98828125 5.37890625 C-5.625 2.75 -5.625 2.75 -4.26953125 0.88671875 C-2.625 -0.25 -2.625 -0.25 0 0 Z " fill="#F1F6E8" transform="translate(62.625,11.25)"/>
<path d="M0 0 C0.99 0 1.98 0 3 0 C3 1.32 3 2.64 3 4 C3.66 4 4.32 4 5 4 C5.33 2.68 5.66 1.36 6 0 C7.32 0 8.64 0 10 0 C9.58054965 2.51670208 9.17555668 4.65985893 8 6.9375 C6.7228974 9.57152412 6.39343003 12.11484648 6 15 C4.68 15 3.36 15 2 15 C1.86722656 14.32453125 1.73445312 13.6490625 1.59765625 12.953125 C1.42105469 12.06109375 1.24445313 11.1690625 1.0625 10.25 C0.88847656 9.36828125 0.71445313 8.4865625 0.53515625 7.578125 C0.19765979 5.95222966 -0.18475374 4.33442752 -0.62890625 2.734375 C-0.75136719 2.16203125 -0.87382812 1.5896875 -1 1 C-0.67 0.67 -0.34 0.34 0 0 Z " fill="#325988" transform="translate(144,12)"/>
<path d="M0 0 C2.97 0 5.94 0 9 0 C9 0.99 9 1.98 9 3 C7.02 3 5.04 3 3 3 C3 3.99 3 4.98 3 6 C4.65 6 6.3 6 8 6 C8 7.32 8 8.64 8 10 C6.35 10 4.7 10 3 10 C3 11.65 3 13.3 3 15 C2.01 15 1.02 15 0 15 C0 10.05 0 5.1 0 0 Z " fill="#345F90" transform="translate(133,12)"/>
<path d="M0 0 C3.3 0 6.6 0 10 0 C10 0.99 10 1.98 10 3 C9.01 3 8.02 3 7 3 C7 6.96 7 10.92 7 15 C5.68 15 4.36 15 3 15 C3 11.04 3 7.08 3 3 C2.01 3 1.02 3 0 3 C0 2.01 0 1.02 0 0 Z " fill="#4E5965" transform="translate(116,12)"/>
<path d="M0 0 C1.875 0.125 1.875 0.125 4 1 C5.38613754 4.28295734 6.13500742 7.5400297 7 11 C3.37 11 -0.26 11 -4 11 C-3.00424757 7.01699027 -1.65362053 3.73862033 0 0 Z " fill="#35455F" transform="translate(26,9)"/>
<path d="M0 0 C0.66 0 1.32 0 2 0 C2.125 2.875 2.125 2.875 2 6 C1.34 6.66 0.68 7.32 0 8 C-0.6425235 10.06874034 -0.6425235 10.06874034 -1 12 C1.64 12 4.28 12 7 12 C7 12.33 7 12.66 7 13 C3.04 13 -0.92 13 -5 13 C-5.33 13.66 -5.66 14.32 -6 15 C-5.46602652 8.69911292 -4.61841897 4.61841897 0 0 Z " fill="#E7EBDD" transform="translate(23,9)"/>
<path d="M0 0 C1.22589844 0.01353516 1.22589844 0.01353516 2.4765625 0.02734375 C3.41628906 0.04474609 3.41628906 0.04474609 4.375 0.0625 C4.375 0.7225 4.375 1.3825 4.375 2.0625 C3.45267578 2.22685547 3.45267578 2.22685547 2.51171875 2.39453125 C1.70347656 2.55308594 0.89523438 2.71164063 0.0625 2.875 C-1.13826172 3.10123047 -1.13826172 3.10123047 -2.36328125 3.33203125 C-4.97595107 4.17584689 -5.98353095 4.87387459 -7.625 7.0625 C-8.62488926 9.55268012 -8.62488926 9.55268012 -9.3125 12.25 C-9.56386719 13.15105469 -9.81523437 14.05210938 -10.07421875 14.98046875 C-10.25597656 15.66753906 -10.43773438 16.35460937 -10.625 17.0625 C-10.955 17.0625 -11.285 17.0625 -11.625 17.0625 C-12.48597841 7.38127615 -12.48597841 7.38127615 -9.25 3.5 C-5.86182767 0.35383998 -4.48295376 -0.0640422 0 0 Z " fill="#DBE0D7" transform="translate(27.625,5.9375)"/>
<path d="M0 0 C0.99 0 1.98 0 3 0 C3 4.95 3 9.9 3 15 C1.68 15 0.36 15 -1 15 C-2.4783226 12.04335481 -2.06032783 9.25770263 -2 6 C-1.34 6 -0.68 6 0 6 C0 4.02 0 2.04 0 0 Z " fill="#A8B8C1" transform="translate(76,12)"/>
<path d="M0 0 C0.66 0 1.32 0 2 0 C2 1.98 2 3.96 2 6 C3.32 6 4.64 6 6 6 C6 5.34 6 4.68 6 4 C6.99 4.33 7.98 4.66 9 5 C8.375 6.9375 8.375 6.9375 7 9 C4 9.875 4 9.875 1 10 C-1 8 -1 8 -1.1875 4.4375 C-1 1 -1 1 0 0 Z " fill="#DFE4D9" transform="translate(46,17)"/>
<path d="M0 0 C5.74624746 -0.4596998 8.55130726 0.32499296 13 4 C17.79898219 8.59033079 17.79898219 8.59033079 18.30859375 12.1640625 C18.3125 14.375 18.3125 14.375 18 18 C17.67 18 17.34 18 17 18 C17 16.02 17 14.04 17 12 C16.34 12 15.68 12 15 12 C14.4225 11.071875 13.845 10.14375 13.25 9.1875 C10.78228833 5.69157513 8.90285207 4.5966213 5 3 C5 2.34 5 1.68 5 1 C3.35 1 1.7 1 0 1 C0 0.67 0 0.34 0 0 Z " fill="#424A5A" transform="translate(24,3)"/>
<path d="M0 0 C0.33 0 0.66 0 1 0 C1.05389087 1.95803507 1.09274217 3.91648909 1.125 5.875 C1.14820312 6.96554688 1.17140625 8.05609375 1.1953125 9.1796875 C1 12 1 12 -1 14 C-1 13.01 -1 12.02 -1 11 C-2.98 11 -4.96 11 -7 11 C-7 10.34 -7 9.68 -7 9 C-5.35 9 -3.7 9 -2 9 C-2 7.68 -2 6.36 -2 5 C-3.65 5 -5.3 5 -7 5 C-7 4.34 -7 3.68 -7 3 C-4.69 3 -2.38 3 0 3 C0 2.01 0 1.02 0 0 Z " fill="#1D1D2C" transform="translate(103,12)"/>
<path d="M0 0 C0.9384375 -0.00515625 1.876875 -0.0103125 2.84375 -0.015625 C5.54047676 0.25404768 7.18949293 0.8767741 9.5 2.25 C9.17 2.91 8.84 3.57 8.5 4.25 C2.56 4.25 -3.38 4.25 -9.5 4.25 C-9.5 3.59 -9.5 2.93 -9.5 2.25 C-6.2396882 0.31226752 -3.77138064 -0.02072187 0 0 Z " fill="#8D949B" transform="translate(27.5,19.75)"/>
<path d="M0 0 C2 2 2 2 2.125 5.625 C2.08375 6.73875 2.0425 7.8525 2 9 C-0.475 8.01 -0.475 8.01 -3 7 C-3 7.66 -3 8.32 -3 9 C-3.99 9 -4.98 9 -6 9 C-6 6.69 -6 4.38 -6 2 C-5.01 1.67 -4.02 1.34 -3 1 C-3 1.99 -3 2.98 -3 4 C-2.01 4 -1.02 4 0 4 C0 2.68 0 1.36 0 0 Z " fill="#363641" transform="translate(55,14)"/>
<path d="M0 0 C4.69978858 2.89217759 4.69978858 2.89217759 5.5546875 6.046875 C5.78597215 8.02330745 5.90062818 10.01256369 6 12 C4.68 12 3.36 12 2 12 C-1.2421875 4.00260417 -1.2421875 4.00260417 0 0 Z " fill="#F0F4E3" transform="translate(31,9)"/>
<path d="M0 0 C0.33 0 0.66 0 1 0 C1.05399736 1.45792884 1.09279177 2.91642712 1.125 4.375 C1.14820312 5.18710937 1.17140625 5.99921875 1.1953125 6.8359375 C1 9 1 9 -1 11 C-1.33 10.34 -1.66 9.68 -2 9 C-3.32 9 -4.64 9 -6 9 C-6 6.69 -6 4.38 -6 2 C-4.68 2 -3.36 2 -2 2 C-1.67 2.99 -1.34 3.98 -1 5 C-0.67 3.35 -0.34 1.7 0 0 Z " fill="#ABAEAB" transform="translate(66,14)"/>
<path d="M0 0 C0.66 0 1.32 0 2 0 C2 4.95 2 9.9 2 15 C1.01 15 0.02 15 -1 15 C-1.02715383 13.25008666 -1.04646551 11.50005055 -1.0625 9.75 C-1.07410156 8.77546875 -1.08570312 7.8009375 -1.09765625 6.796875 C-1.01195577 4.34241322 -0.70706066 2.33831086 0 0 Z " fill="#356193" transform="translate(129,12)"/>
<path d="M0 0 C4.70588235 0.70588235 4.70588235 0.70588235 6 2 C6.1875 4.9375 6.1875 4.9375 6 8 C5.34 8.66 4.68 9.32 4 10 C3.67 8.35 3.34 6.7 3 5 C1.02 5 -0.96 5 -3 5 C-1.125 1.125 -1.125 1.125 0 0 Z " fill="#BDC1BA" transform="translate(60,11)"/>
<path d="M0 0 C0.66 0 1.32 0 2 0 C2.0825 1.216875 2.165 2.43375 2.25 3.6875 C2.73945125 7.81496201 4.18197452 9.90926238 7 13 C7 13.66 7 14.32 7 15 C2.76342842 13.48693872 1.0072793 10.94021492 -1 7 C-0.75 3.125 -0.75 3.125 0 0 Z " fill="#525C6E" transform="translate(14,15)"/>
<path d="M0 0 C0.33 1.32 0.66 2.64 1 4 C1.99 4 2.98 4 4 4 C4 3.34 4 2.68 4 2 C5.98 2 7.96 2 10 2 C10 3.32 10 4.64 10 6 C6.7 6 3.4 6 0 6 C0 4.02 0 2.04 0 0 Z " fill="#48525E" transform="translate(92,21)"/>
<path d="M0 0 C-0.33 0.99 -0.66 1.98 -1 3 C-6.36875709 4.34218927 -9.18647258 3.45179671 -14 1 C-12.23103898 0.63659714 -10.45973374 0.28459117 -8.6875 -0.0625 C-7.70136719 -0.25972656 -6.71523438 -0.45695312 -5.69921875 -0.66015625 C-3 -1 -3 -1 0 0 Z " fill="#E0E5DB" transform="translate(37,24)"/>
<path d="M0 0 C0.66 0 1.32 0 2 0 C2 0.99 2 1.98 2 3 C2.99 3.33 3.98 3.66 5 4 C5 4.66 5 5.32 5 6 C4.01 6 3.02 6 2 6 C2 6.66 2 7.32 2 8 C1.01 8 0.02 8 -1 8 C-1.04241723 5.66705225 -1.04092937 3.33297433 -1 1 C-0.67 0.67 -0.34 0.34 0 0 Z " fill="#100F1E" transform="translate(109,15)"/>
<path d="M0 0 C0.99 0 1.98 0 3 0 C3 2.31 3 4.62 3 7 C0.69 7 -1.62 7 -4 7 C-4 6.34 -4 5.68 -4 5 C-2.35 5 -0.7 5 1 5 C0.67 3.35 0.34 1.7 0 0 Z " fill="#0F0D1D" transform="translate(100,16)"/>
<path d="M0 0 C0.33 0.99 0.66 1.98 1 3 C1.99 3 2.98 3 4 3 C4 6.96 4 10.92 4 15 C3.67 15 3.34 15 3 15 C3 11.7 3 8.4 3 5 C1.68 5.33 0.36 5.66 -1 6 C-0.67 4.02 -0.34 2.04 0 0 Z " fill="#20212F" transform="translate(115,12)"/>
<path d="M0 0 C0.99 0.33 1.98 0.66 3 1 C3 1.99 3 2.98 3 4 C1.02 4.33 -0.96 4.66 -3 5 C-3 4.01 -3 3.02 -3 2 C-2.01 1.34 -1.02 0.68 0 0 Z " fill="#D4D9CF" transform="translate(62,22)"/>
<path d="M0 0 C3.96 0 7.92 0 12 0 C12 0.33 12 0.66 12 1 C10.6078125 1.185625 10.6078125 1.185625 9.1875 1.375 C5.86074765 1.81533082 5.86074765 1.81533082 3 4 C2.01 3.34 1.02 2.68 0 2 C0 1.34 0 0.68 0 0 Z " fill="#D0D6CF" transform="translate(18,24)"/>
<path d="M0 0 C0.66 0 1.32 0 2 0 C2 2.31 2 4.62 2 7 C1.01 7.33 0.02 7.66 -1 8 C-1.04241723 5.66705225 -1.04092937 3.33297433 -1 1 C-0.67 0.67 -0.34 0.34 0 0 Z " fill="#2F2F3A" transform="translate(61,15)"/>
<path d="M0 0 C1.98 0.495 1.98 0.495 4 1 C3.67 2.32 3.34 3.64 3 5 C1.68 4.67 0.36 4.34 -1 4 C-0.67 2.68 -0.34 1.36 0 0 Z " fill="#1C2F4E" transform="translate(26,9)"/>
<path d="M0 0 C1.65 0 3.3 0 5 0 C5.125 2.875 5.125 2.875 5 6 C4.34 6.66 3.68 7.32 3 8 C2.87625 6.865625 2.7525 5.73125 2.625 4.5625 C2.41875 3.386875 2.2125 2.21125 2 1 C1.34 0.67 0.68 0.34 0 0 Z " fill="#EEF3E6" transform="translate(61,13)"/>
<path d="M0 0 C4.95 0.99 4.95 0.99 10 2 C5.82091936 4.08954032 5.19589427 4.16552619 1 3 C0.67 2.01 0.34 1.02 0 0 Z " fill="#3C485E" transform="translate(20,28)"/>
</svg>
